<svg width="24.000000" height="24.000000" viewBox="0 0 24 24" fill="none" xmlns="http://www.w3.org/2000/svg" xmlns:xlink="http://www.w3.org/1999/xlink">
	<desc>
			Created with Pixso.
	</desc>
	<defs/>
	<rect id="feather-icon / phone" width="24.000000" height="24.000000" fill="#FFFFFF" fill-opacity="0"/>
	<path id="Shape" d="M21 19.92C21.0024 20.4832 20.7671 21.0212 20.3521 21.4019C19.937 21.7826 19.3809 21.9707 18.8198 21.92C15.7427 21.5856 12.7871 20.5341 10.1899 18.85C7.77393 17.3147 5.7251 15.2662 4.18994 12.85C2.5 10.2412 1.44824 7.271 1.12012 4.18001C1.06934 3.62088 1.25635 3.06625 1.63477 2.65163C2.01318 2.237 2.54834 2.00053 3.10986 2L6.10986 2C7.11377 1.99013 7.96924 2.72597 8.10986 3.72C8.23633 4.68007 8.47119 5.62273 8.81006 6.53001C9.08447 7.26088 8.90918 8.08481 8.35986 8.64L7.08984 9.91C8.51367 12.4136 10.5864 14.4865 13.0898 15.91L14.3599 14.64C14.915 14.091 15.7393 13.9153 16.4697 14.19C17.3774 14.5286 18.3198 14.7634 19.2798 14.89C20.2856 15.0319 21.0249 15.9048 21 16.92L21 19.92Z" stroke="#31405B" stroke-opacity="1.000000" stroke-width="2.000000" stroke-linejoin="round"/>
</svg>
